Coordinates
version=1
nRows=16
nColumns=33
inDegrees=yes

Units are S.I. units (second, meters, Newtons, ...)
Angles are in degrees.

endheader
time	ground_thorax_rot_x	ground_thorax_rot_y	ground_thorax_rot_z	ground_thorax_tx	ground_thorax_ty	ground_thorax_tz	clav_prot_r	clav_elev_r	scapula_abduction_r	scapula_elevation_r	scapula_upward_rot_r	scapula_winging_r	shoulder_elv_r	plane_of_elev_r	axial_rot_r	elbow_flexion_r	pro_sup_r	wrist_flex_r	wrist_dev_r	clav_prot_l	clav_elev_l	scapula_abduction_l	scapula_elevation_l	scapula_upward_rot_l	scapula_winging_l	shoulder_elv_l	plane_of_elev_l	axial_rot_l	elbow_flexion_l	pro_sup_l	wrist_flex_l	wrist_dev_l	
2.5600	-34.651185	-4.181225	13.346578	-79.747441	775.941093	20.053997	-6.957907	-45.000000	45.000000	-45.000000	23.075564	-3708.619776	-1018.348710	20.611005	-180.000000	1805.894287	-110.375908	12.652279	9.131494	17.536920	36.156694	-45.000000	-36.653340	-29.631662	437.007800	-821.919256	136.142157	165.050891	369.576613	28.008430	8.146400	-17.084679	
2.5700	-34.640651	-4.295172	13.310513	-79.577385	775.901151	20.162902	-6.987423	-45.000000	45.000000	-45.000000	22.984756	-3708.611919	-1018.405887	20.610467	-180.000000	1805.904393	-110.200342	12.716147	9.144912	17.566097	36.050635	-45.000000	-36.559300	-29.605315	436.995960	-821.913614	136.132983	165.069049	369.507608	27.969692	8.152830	-17.105578	
2.5800	-34.591454	-4.405533	13.280385	-79.432995	775.859634	20.263915	-7.094427	-45.000000	45.000000	-45.000000	22.862865	-3708.550819	-1018.417682	20.597420	-180.000000	1805.890286	-110.019286	12.739074	9.166540	17.660908	35.915712	-45.000000	-36.413228	-29.568266	437.008561	-821.921287	136.122982	165.102145	369.418975	27.920691	8.095630	-17.158222	
2.5900	-34.570016	-4.497368	13.228346	-79.340768	775.814508	20.353254	-7.133531	-45.000000	45.000000	-45.000000	22.811516	-3708.540103	-1018.462077	20.593689	-180.000000	1805.887892	-109.809814	12.796484	9.179183	17.682135	35.826651	-45.000000	-36.318669	-29.516004	437.005783	-821.931319	136.117904	165.106262	369.366700	27.879308	8.093187	-17.179366	
2.6000	-34.554037	-4.575511	13.165048	-79.303717	775.761979	20.431950	-7.156146	-45.000000	45.000000	-45.000000	22.790643	-3708.542175	-1018.512927	20.586807	-180.000000	1805.879134	-109.564223	12.856721	9.187711	17.678859	35.758228	-45.000000	-36.244657	-29.455747	437.003194	-821.951399	136.114883	165.090403	369.331351	27.837081	8.102391	-17.190362	
2.6100	-34.538123	-4.640833	13.097825	-79.327021	775.697403	20.502554	-7.158870	-45.000000	45.000000	-45.000000	22.799590	-3708.569223	-1018.565559	20.593243	-180.000000	1805.873448	-109.266865	12.932418	9.195210	17.650726	35.710559	-45.000000	-36.180490	-29.386873	437.000428	-821.972591	136.120981	165.054372	369.315156	27.791356	8.128156	-17.191642	
2.6200	-34.516254	-4.700272	13.031317	-79.411220	775.619542	20.563788	-7.161352	-45.000000	45.000000	-45.000000	22.815230	-3708.591430	-1018.608282	20.594657	-180.000000	1805.858648	-108.921134	12.992858	9.199687	17.617209	35.682412	-45.000000	-36.121065	-29.321126	437.005365	-821.999324	136.130241	165.006379	369.306569	27.738750	8.148554	-17.187516	
2.6300	-34.488920	-4.753626	12.973176	-79.551439	775.525936	20.619317	-7.158269	-45.000000	45.000000	-45.000000	22.831365	-3708.633409	-1018.645386	20.611174	-180.000000	1805.845751	-108.532988	13.064385	9.206790	17.582413	35.655319	-45.000000	-36.065676	-29.261920	437.012680	-822.023918	136.144929	164.949820	369.304739	27.679504	8.174357	-17.182639	
2.6400	-34.454906	-4.806811	12.919448	-79.745292	775.419138	20.666660	-7.167245	-45.000000	45.000000	-45.000000	22.834024	-3708.645661	-1018.665534	20.608134	-180.000000	1805.817819	-108.118734	13.097595	9.207726	17.555344	35.644556	-45.000000	-36.014929	-29.214987	437.032250	-822.052215	136.154968	164.898328	369.299863	27.612355	8.182759	-17.174891	
2.6500	-34.416798	-4.858028	12.878121	-79.989577	775.301736	20.705481	-7.171810	-45.000000	45.000000	-45.000000	22.831770	-3708.669778	-1018.674636	20.617985	-180.000000	1805.796730	-107.698580	13.135056	9.212225	17.533864	35.639103	-45.000000	-35.967164	-29.180482	437.052400	-822.073536	136.168385	164.856293	369.296736	27.540538	8.192380	-17.167608	
2.6600	-34.379802	-4.908628	12.842586	-80.282328	775.178596	20.733026	-7.187590	-45.000000	45.000000	-45.000000	22.814020	-3708.672669	-1018.672353	20.608263	-180.000000	1805.764274	-107.297111	13.144017	9.215836	17.526510	35.638844	-45.000000	-35.933363	-29.162158	437.082344	-822.100452	136.169827	164.832708	369.286916	27.464196	8.185423	-17.161496	
2.6700	-34.358651	-4.951320	12.818642	-80.619587	775.052147	20.751743	-7.179549	-45.000000	45.000000	-45.000000	22.799783	-3708.722630	-1018.681454	20.616690	-180.000000	1805.746703	-106.929853	13.188192	9.227917	17.514465	35.631724	-45.000000	-35.925751	-29.159824	437.102162	-822.118923	136.171665	164.819574	369.288812	27.387776	8.199631	-17.157690	
2.6800	-34.345717	-4.991735	12.799885	-80.998351	774.926193	20.762151	-7.180997	-45.000000	45.000000	-45.000000	22.773177	-3708.754705	-1018.683028	20.601654	-180.000000	1805.718269	-106.604116	13.204485	9.237944	17.512940	35.630625	-45.000000	-35.936538	-29.169073	437.136256	-822.146219	136.157202	164.829898	369.287751	27.306059	8.199422	-17.153400	
2.6900	-34.342120	-5.027538	12.794497	-81.415874	774.804286	20.765203	-7.164036	-45.000000	45.000000	-45.000000	22.750117	-3708.822433	-1018.682895	20.608864	-180.000000	1805.707654	-106.328639	13.246975	9.256319	17.510311	35.632788	-45.000000	-35.960113	-29.195067	437.159486	-822.159317	136.151179	164.854379	369.296309	27.220874	8.215032	-17.152951	
2.7000	-34.342500	-5.063651	12.793349	-81.869014	774.689853	20.762344	-7.156561	-45.000000	45.000000	-45.000000	22.717777	-3708.871600	-1018.673962	20.598045	-180.000000	1805.690624	-106.108976	13.260130	9.272546	17.518144	35.648927	-45.000000	-35.992198	-29.234720	437.200821	-822.177912	136.130364	164.904318	369.302229	27.127174	8.215671	-17.149777	
2.7100	-34.346452	-5.095871	12.799166	-82.354833	774.586156	20.755264	-7.135760	-45.000000	45.000000	-45.000000	22.687684	-3708.939444	-1018.660579	20.605869	-180.000000	1805.684006	-105.952214	13.289315	9.293022	17.523642	35.664112	-45.000000	-36.033266	-29.290289	437.231809	-822.180419	136.122187	164.963743	369.319056	27.027259	8.231392	-17.153453	
